<svg width="560" height="560" viewBox="0 0 560 560" fill="none" xmlns="http://www.w3.org/2000/svg">
<path d="M480.409 297.388C484.987 245.479 469.277 193.816 436.577 153.244C403.878 112.671 356.732 86.3432 305.037 79.7878L294.897 159.747C325.915 163.681 354.202 179.477 373.822 203.821C393.441 228.165 402.867 259.162 400.121 290.307L480.409 297.388Z" fill="#1498CC"/>
<path d="M274.77 78.2467C243.118 79.0196 212.092 87.2406 184.21 102.243C156.328 117.246 132.374 138.608 114.29 164.598C96.2058 190.587 84.5007 220.473 80.1236 251.831C75.7465 283.189 78.8207 315.137 89.097 345.085C99.3732 375.033 116.562 402.138 139.27 424.203C161.978 446.267 189.566 462.669 219.798 472.08C250.029 481.491 282.052 483.645 313.272 478.368C344.491 473.091 374.027 460.532 399.486 441.708L351.567 376.899C336.292 388.194 318.57 395.73 299.839 398.896C281.107 402.062 261.893 400.769 243.754 395.123C225.615 389.476 209.063 379.635 195.438 366.396C181.813 353.158 171.499 336.895 165.334 318.926C159.168 300.957 157.323 281.788 159.95 262.973C162.576 244.158 169.599 226.227 180.45 210.633C191.3 195.04 205.673 182.222 222.402 173.221C239.131 164.219 255.779 157.651 274.77 157.187L274.77 78.2467Z" fill="#484848"/>
<path d="M419.439 424.846C446.71 398.591 466.034 365.186 475.196 328.457L396.993 308.948C391.495 330.986 379.901 351.029 363.539 366.782L419.439 424.846Z" fill="#1F78B4"/>
</svg>
