<svg width="191" height="47" viewBox="0 0 191 47" fill="none" xmlns="http://www.w3.org/2000/svg">
<g clip-path="url(#clip0_40000163_6853)">
<path d="M169.14 30.8034C169.14 32.117 168.903 33.3089 168.427 34.3793C167.977 35.4739 167.327 36.4105 166.477 37.189C165.627 37.9917 164.601 38.6121 163.401 39.0498C162.2 39.4878 160.875 39.7067 159.425 39.7067C157.724 39.7067 156.161 39.4757 154.736 39.0134C153.335 38.5512 151.997 37.7485 150.722 36.6051L153.01 33.8319C153.885 34.7563 154.835 35.4496 155.861 35.9119C156.886 36.3984 158.049 36.6416 159.35 36.6416C160.6 36.6416 161.638 36.4591 162.463 36.0943C163.288 35.7536 163.938 35.3036 164.414 34.7442C164.914 34.1847 165.264 33.5401 165.464 32.8102C165.664 32.1047 165.764 31.3871 165.764 30.6574V28.1032H165.651C165.001 29.1492 164.114 29.9275 162.988 30.4384C161.888 30.925 160.725 31.1681 159.5 31.1681C158.199 31.1681 156.986 30.9492 155.861 30.5114C154.76 30.0491 153.81 29.4289 153.01 28.6504C152.21 27.8477 151.584 26.9111 151.134 25.8407C150.684 24.746 150.459 23.5663 150.459 22.3013C150.459 21.0363 150.672 19.8565 151.097 18.7619C151.522 17.6428 152.122 16.6698 152.897 15.8427C153.698 15.0156 154.648 14.371 155.748 13.9087C156.874 13.4465 158.124 13.2155 159.5 13.2155C160.7 13.2155 161.863 13.4709 162.988 13.9817C164.139 14.4926 165.039 15.2102 165.689 16.1346H165.764V13.6533H169.14V30.8034ZM159.912 16.2805C159.012 16.2805 158.199 16.4387 157.474 16.7549C156.749 17.0468 156.136 17.4604 155.636 17.9955C155.136 18.5064 154.748 19.1389 154.473 19.893C154.198 20.6227 154.06 21.4256 154.06 22.3013C154.06 24.0528 154.585 25.4636 155.636 26.5341C156.686 27.5801 158.112 28.1032 159.912 28.1032C161.713 28.1032 163.138 27.5801 164.189 26.5341C165.239 25.4636 165.764 24.0528 165.764 22.3013C165.764 21.4256 165.627 20.6227 165.352 19.893C165.076 19.1389 164.689 18.5064 164.189 17.9955C163.688 17.4604 163.076 17.0468 162.35 16.7549C161.625 16.4387 160.812 16.2805 159.912 16.2805Z" fill="#1E1E1E" fill-opacity="0.5"/>
<path d="M131.037 22.3013C131.037 23.177 131.174 23.9919 131.449 24.746C131.725 25.4759 132.112 26.1083 132.612 26.6436C133.113 27.1543 133.725 27.5679 134.45 27.8842C135.176 28.1761 135.988 28.322 136.889 28.322C137.789 28.322 138.602 28.1761 139.327 27.8842C140.052 27.5679 140.665 27.1543 141.165 26.6436C141.665 26.1083 142.053 25.4759 142.328 24.746C142.603 23.9919 142.741 23.177 142.741 22.3013C142.741 21.4256 142.603 20.6227 142.328 19.893C142.053 19.1389 141.665 18.5064 141.165 17.9955C140.665 17.4604 140.052 17.0468 139.327 16.7549C138.602 16.4387 137.789 16.2805 136.889 16.2805C135.988 16.2805 135.176 16.4387 134.45 16.7549C133.725 17.0468 133.113 17.4604 132.612 17.9955C132.112 18.5064 131.725 19.1389 131.449 19.893C131.174 20.6227 131.037 21.4256 131.037 22.3013ZM127.436 22.3013C127.436 21.0363 127.673 19.8565 128.148 18.7619C128.649 17.6672 129.324 16.7063 130.174 15.8792C131.024 15.0521 132.025 14.4074 133.175 13.9452C134.325 13.4587 135.563 13.2155 136.889 13.2155C138.214 13.2155 139.452 13.4587 140.602 13.9452C141.753 14.4074 142.753 15.0521 143.604 15.8792C144.454 16.7063 145.117 17.6672 145.592 18.7619C146.092 19.8565 146.342 21.0363 146.342 22.3013C146.342 23.5663 146.092 24.7583 145.592 25.8772C145.117 26.9718 144.454 27.9328 143.604 28.7599C142.753 29.5627 141.753 30.2074 140.602 30.6939C139.452 31.156 138.214 31.3871 136.889 31.3871C135.563 31.3871 134.325 31.156 133.175 30.6939C132.025 30.2074 131.024 29.5627 130.174 28.7599C129.324 27.9328 128.649 26.9718 128.148 25.8772C127.673 24.7583 127.436 23.5663 127.436 22.3013Z" fill="#1E1E1E" fill-opacity="0.5"/>
<path d="M114.324 13.6533H117.7V16.317H117.775C118 15.8548 118.301 15.4413 118.676 15.0764C119.051 14.6872 119.463 14.3588 119.914 14.0912C120.389 13.8236 120.901 13.6168 121.452 13.4709C122.002 13.3006 122.552 13.2155 123.102 13.2155C123.652 13.2155 124.153 13.2884 124.603 13.4344L124.453 16.9738C124.177 16.9008 123.902 16.8401 123.627 16.7914C123.352 16.7428 123.077 16.7184 122.802 16.7184C121.151 16.7184 119.889 17.1684 119.013 18.0685C118.138 18.9686 117.7 20.3674 117.7 22.2648V30.9492H114.324V13.6533Z" fill="#1E1E1E" fill-opacity="0.5"/>
<path d="M102.395 16.4996H98.5684V13.6535H102.395V9.7856C102.395 7.4746 102.845 5.7596 103.745 4.6406C104.67 3.49726 106.246 2.9256 108.472 2.9256C108.847 2.9256 109.234 2.93776 109.635 2.96209C110.06 2.98641 110.51 3.0594 110.985 3.18102L110.61 6.10017C110.285 5.97853 109.972 5.8934 109.672 5.84475C109.372 5.7961 109.047 5.77176 108.697 5.77176C108.071 5.77176 107.571 5.86907 107.196 6.06368C106.821 6.23397 106.521 6.4894 106.296 6.82995C106.096 7.17052 105.958 7.58407 105.883 8.0706C105.833 8.53279 105.808 9.06798 105.808 9.67613V13.6535H109.822V16.4996H105.771V30.9493H102.395V16.4996Z" fill="#1E1E1E" fill-opacity="0.5"/>
<path d="M95.2183 30.9505H91.8422V28.4692H91.7671C91.1169 29.3937 90.2166 30.1113 89.0662 30.622C87.9408 31.133 86.7779 31.3884 85.5775 31.3884C84.2022 31.3884 82.9518 31.1573 81.8264 30.695C80.726 30.2329 79.7758 29.5883 78.9754 28.7612C78.2002 27.9341 77.5999 26.9732 77.1747 25.8785C76.7498 24.7838 76.5371 23.5918 76.5371 22.3026C76.5371 21.0132 76.7498 19.8213 77.1747 18.7267C77.5999 17.6076 78.2002 16.6467 78.9754 15.8439C79.7758 15.0169 80.726 14.3722 81.8264 13.91C82.9518 13.4478 84.2022 13.2167 85.5775 13.2167C86.853 13.2167 88.0534 13.4843 89.1788 14.0195C90.3041 14.5303 91.167 15.2358 91.7671 16.1359H91.8422V3.36459H95.2183V30.9505ZM85.9902 28.3233C86.8905 28.3233 87.7033 28.1773 88.4286 27.8855C89.1539 27.5692 89.7666 27.1556 90.2666 26.6447C90.7668 26.1096 91.1544 25.4771 91.4295 24.7474C91.7047 23.9933 91.8422 23.1783 91.8422 22.3026C91.8422 21.4267 91.7047 20.624 91.4295 19.8943C91.1544 19.1402 90.7668 18.5077 90.2666 17.9968C89.7666 17.4617 89.1539 17.0481 88.4286 16.7562C87.7033 16.4399 86.8905 16.2818 85.9902 16.2818C85.09 16.2818 84.2772 16.4399 83.5519 16.7562C82.8266 17.0481 82.2141 17.4617 81.7139 17.9968C81.2137 18.5077 80.8261 19.1402 80.551 19.8943C80.2759 20.624 80.1383 21.4267 80.1383 22.3026C80.1383 23.1783 80.2759 23.9933 80.551 24.7474C80.8261 25.4771 81.2137 26.1096 81.7139 26.6447C82.2141 27.1556 82.8266 27.5692 83.5519 27.8855C84.2772 28.1773 85.09 28.3233 85.9902 28.3233Z" fill="#1E1E1E" fill-opacity="0.5"/>
<path d="M57.1149 22.3013C57.1149 23.177 57.2523 23.9919 57.5274 24.746C57.8025 25.4759 58.1901 26.1083 58.6903 26.6436C59.1905 27.1543 59.8032 27.5679 60.5285 27.8842C61.2538 28.1761 62.0666 28.322 62.9668 28.322C63.8671 28.322 64.6798 28.1761 65.4051 27.8842C66.1302 27.5679 66.743 27.1543 67.2432 26.6436C67.7433 26.1083 68.131 25.4759 68.406 24.746C68.6811 23.9919 68.8187 23.177 68.8187 22.3013C68.8187 21.4256 68.6811 20.6227 68.406 19.893C68.131 19.1389 67.7433 18.5064 67.2432 17.9955C66.743 17.4604 66.1302 17.0468 65.4051 16.7549C64.6798 16.4387 63.8671 16.2805 62.9668 16.2805C62.0666 16.2805 61.2538 16.4387 60.5285 16.7549C59.8032 17.0468 59.1905 17.4604 58.6903 17.9955C58.1901 18.5064 57.8025 19.1389 57.5274 19.893C57.2523 20.6227 57.1149 21.4256 57.1149 22.3013ZM53.5137 22.3013C53.5137 21.0363 53.7512 19.8565 54.2263 18.7619C54.7265 17.6672 55.4017 16.7063 56.252 15.8792C57.1023 15.0521 58.1026 14.4074 59.2531 13.9452C60.4035 13.4587 61.6414 13.2155 62.9668 13.2155C64.2922 13.2155 65.5301 13.4587 66.6806 13.9452C67.8308 14.4074 68.8312 15.0521 69.6815 15.8792C70.5318 16.7063 71.1945 17.6672 71.6696 18.7619C72.1698 19.8565 72.4199 21.0363 72.4199 22.3013C72.4199 23.5663 72.1698 24.7583 71.6696 25.8772C71.1945 26.9718 70.5318 27.9328 69.6815 28.7599C68.8312 29.5627 67.8308 30.2074 66.6806 30.6939C65.5301 31.156 64.2922 31.3871 62.9668 31.3871C61.6414 31.3871 60.4035 31.156 59.2531 30.6939C58.1026 30.2074 57.1023 29.5627 56.252 28.7599C55.4017 27.9328 54.7265 26.9718 54.2263 25.8772C53.7512 24.7583 53.5137 23.5663 53.5137 22.3013Z" fill="#1E1E1E" fill-opacity="0.5"/>
<path d="M34.0914 22.3013C34.0914 23.177 34.2289 23.9919 34.504 24.746C34.779 25.4759 35.1667 26.1083 35.6668 26.6436C36.167 27.1543 36.7798 27.5679 37.505 27.8842C38.2302 28.1761 39.0429 28.322 39.9434 28.322C40.8436 28.322 41.6564 28.1761 42.3817 27.8842C43.1068 27.5679 43.7195 27.1543 44.2197 26.6436C44.7199 26.1083 45.1075 25.4759 45.3826 24.746C45.6577 23.9919 45.7953 23.177 45.7953 22.3013C45.7953 21.4256 45.6577 20.6227 45.3826 19.893C45.1075 19.1389 44.7199 18.5064 44.2197 17.9955C43.7195 17.4604 43.1068 17.0468 42.3817 16.7549C41.6564 16.4387 40.8436 16.2805 39.9434 16.2805C39.0429 16.2805 38.2302 16.4387 37.505 16.7549C36.7798 17.0468 36.167 17.4604 35.6668 17.9955C35.1667 18.5064 34.779 19.1389 34.504 19.893C34.2289 20.6227 34.0914 21.4256 34.0914 22.3013ZM30.4902 22.3013C30.4902 21.0363 30.7278 19.8565 31.2029 18.7619C31.7031 17.6672 32.3782 16.7063 33.2285 15.8792C34.0788 15.0521 35.0792 14.4074 36.2296 13.9452C37.3799 13.4587 38.6178 13.2155 39.9434 13.2155C41.2688 13.2155 42.5067 13.4587 43.6571 13.9452C44.8074 14.4074 45.8078 15.0521 46.658 15.8792C47.5083 16.7063 48.171 17.6672 48.6461 18.7619C49.1463 19.8565 49.3965 21.0363 49.3965 22.3013C49.3965 23.5663 49.1463 24.7583 48.6461 25.8772C48.171 26.9718 47.5083 27.9328 46.658 28.7599C45.8078 29.5627 44.8074 30.2074 43.6571 30.6939C42.5067 31.156 41.2688 31.3871 39.9434 31.3871C38.6178 31.3871 37.3799 31.156 36.2296 30.6939C35.0792 30.2074 34.0788 29.5627 33.2285 28.7599C32.3782 27.9328 31.7031 26.9718 31.2029 25.8772C30.7278 24.7583 30.4902 23.5663 30.4902 22.3013Z" fill="#1E1E1E" fill-opacity="0.5"/>
<path d="M0 13.6528H3.78876L7.80259 26.5701H7.87762L12.1165 13.6528H15.6802L20.1817 26.5701H20.2567L24.0831 13.6528H27.6467L21.9074 30.9489H18.4936L13.8046 18.0315H13.7296L9.49065 30.9489H5.85195L0 13.6528Z" fill="#1E1E1E" fill-opacity="0.5"/>
<path d="M176.619 0.759766L171.15 11.9091H174.015L177.661 4.05388L181.309 11.9091H184.435L178.705 0.759766H176.619Z" fill="#1498CC" stroke="#1498CC" stroke-width="0.305512"/>
</g>
<path d="M158.941 45.3992V44.0582H160.343V45.3992H158.941Z" fill="#7B7B7B"/>
<path d="M153.875 45.3991V41.2839H155.155V42.055H155.06C155.193 41.7812 155.389 41.5716 155.648 41.4264C155.913 41.2755 156.213 41.2001 156.548 41.2001C156.888 41.2001 157.167 41.2643 157.387 41.3928C157.606 41.5158 157.77 41.7058 157.88 41.9628C157.989 42.2142 158.044 42.5355 158.044 42.9266V45.3991H156.738V42.9853C156.738 42.7953 156.712 42.6417 156.66 42.5243C156.614 42.4014 156.542 42.3148 156.444 42.2645C156.352 42.2086 156.233 42.1807 156.089 42.1807C155.905 42.1807 155.743 42.2198 155.605 42.298C155.472 42.3707 155.368 42.4768 155.293 42.6165C155.218 42.7562 155.181 42.9183 155.181 43.1026V45.3991H153.875Z" fill="#7B7B7B"/>
<path d="M150.825 45.4913C150.369 45.4913 149.972 45.4047 149.631 45.2315C149.297 45.0583 149.037 44.8097 148.853 44.4856C148.668 44.1615 148.576 43.7787 148.576 43.3373C148.576 42.8959 148.668 42.516 148.853 42.1975C149.037 41.879 149.297 41.6331 149.631 41.4599C149.972 41.2867 150.369 41.2001 150.825 41.2001C151.28 41.2001 151.675 41.2867 152.01 41.4599C152.35 41.6331 152.612 41.8818 152.797 42.2058C152.987 42.5243 153.082 42.9015 153.082 43.3373C153.082 43.7787 152.987 44.1615 152.797 44.4856C152.612 44.8097 152.35 45.0583 152.01 45.2315C151.675 45.4047 151.28 45.4913 150.825 45.4913ZM150.825 44.5442C151.107 44.5442 151.335 44.4465 151.508 44.2509C151.681 44.0497 151.768 43.7452 151.768 43.3373C151.768 42.9294 151.681 42.6305 151.508 42.4405C151.335 42.245 151.107 42.1472 150.825 42.1472C150.548 42.1472 150.323 42.245 150.15 42.4405C149.977 42.6305 149.891 42.9294 149.891 43.3373C149.891 43.7452 149.977 44.0497 150.15 44.2509C150.323 44.4465 150.548 44.5442 150.825 44.5442Z" fill="#7B7B7B"/>
<path d="M146.416 40.4877V39.3059H147.826V40.4877H146.416ZM146.468 45.3992V41.2839H147.774V45.3992H146.468Z" fill="#7B7B7B"/>
<path d="M145.056 45.4913C144.45 45.4913 144 45.3489 143.706 45.0639C143.412 44.7789 143.265 44.3599 143.265 43.8067V42.231H142.461V41.2839H143.265V40.077H144.571V41.2839H145.825V42.231H144.571V43.7564C144.571 43.9911 144.626 44.1671 144.736 44.2844C144.851 44.4018 145.033 44.4604 145.281 44.4604C145.355 44.4604 145.433 44.452 145.514 44.4353C145.601 44.4185 145.693 44.3962 145.791 44.3682L145.981 45.2902C145.86 45.3516 145.716 45.3991 145.549 45.4327C145.381 45.4718 145.217 45.4913 145.056 45.4913Z" fill="#7B7B7B"/>
<path d="M139.593 45.4913C139.281 45.4913 139.002 45.4327 138.754 45.3153C138.506 45.198 138.313 45.0387 138.174 44.8376C138.036 44.6364 137.967 44.4101 137.967 44.1587C137.967 43.857 138.048 43.6195 138.209 43.4463C138.37 43.2675 138.633 43.1418 138.996 43.0691C139.359 42.9909 139.841 42.9518 140.44 42.9518H140.899V43.6055H140.449C140.224 43.6055 140.034 43.6139 139.878 43.6307C139.728 43.6474 139.604 43.6782 139.506 43.7229C139.408 43.762 139.336 43.8123 139.29 43.8737C139.25 43.9352 139.23 44.0134 139.23 44.1084C139.23 44.2649 139.284 44.3934 139.394 44.494C139.509 44.5945 139.674 44.6448 139.887 44.6448C140.054 44.6448 140.201 44.6085 140.328 44.5359C140.461 44.4576 140.564 44.3543 140.639 44.2258C140.714 44.0917 140.752 43.9408 140.752 43.7732V42.8093C140.752 42.5634 140.694 42.3902 140.579 42.2897C140.463 42.1835 140.267 42.1304 139.991 42.1304C139.76 42.1304 139.515 42.1667 139.256 42.2394C139.002 42.3064 138.748 42.4098 138.494 42.5495L138.14 41.703C138.29 41.6024 138.471 41.5158 138.685 41.4431C138.904 41.3649 139.132 41.3062 139.368 41.2671C139.604 41.2224 139.829 41.2001 140.043 41.2001C140.487 41.2001 140.85 41.2643 141.132 41.3928C141.421 41.5158 141.637 41.7085 141.781 41.9712C141.925 42.2282 141.997 42.5607 141.997 42.9685V45.3991H140.778V44.5694H140.838C140.804 44.7594 140.729 44.9242 140.613 45.0639C140.504 45.198 140.363 45.3042 140.19 45.3824C140.017 45.455 139.818 45.4913 139.593 45.4913Z" fill="#7B7B7B"/>
<path d="M134.874 45.3992L133.023 41.2839H134.399L135.592 44.2342H135.315L136.561 41.2839H137.85L135.973 45.3992H134.874Z" fill="#7B7B7B"/>
<path d="M130.671 45.4913C130.215 45.4913 129.817 45.4047 129.477 45.2315C129.143 45.0583 128.883 44.8097 128.699 44.4856C128.514 44.1615 128.422 43.7787 128.422 43.3373C128.422 42.8959 128.514 42.516 128.699 42.1975C128.883 41.879 129.143 41.6331 129.477 41.4599C129.817 41.2867 130.215 41.2001 130.671 41.2001C131.126 41.2001 131.521 41.2867 131.856 41.4599C132.196 41.6331 132.458 41.8818 132.643 42.2058C132.833 42.5243 132.928 42.9015 132.928 43.3373C132.928 43.7787 132.833 44.1615 132.643 44.4856C132.458 44.8097 132.196 45.0583 131.856 45.2315C131.521 45.4047 131.126 45.4913 130.671 45.4913ZM130.671 44.5442C130.953 44.5442 131.181 44.4465 131.354 44.2509C131.527 44.0497 131.613 43.7452 131.613 43.3373C131.613 42.9294 131.527 42.6305 131.354 42.4405C131.181 42.245 130.953 42.1472 130.671 42.1472C130.394 42.1472 130.169 42.245 129.996 42.4405C129.823 42.6305 129.737 42.9294 129.737 43.3373C129.737 43.7452 129.823 44.0497 129.996 44.2509C130.169 44.4465 130.394 44.5442 130.671 44.5442Z" fill="#7B7B7B"/>
<path d="M123.486 45.3991V41.2839H124.766V42.055H124.671C124.804 41.7812 125 41.5716 125.259 41.4264C125.525 41.2755 125.824 41.2001 126.159 41.2001C126.499 41.2001 126.779 41.2643 126.998 41.3928C127.217 41.5158 127.381 41.7058 127.491 41.9628C127.6 42.2142 127.655 42.5355 127.655 42.9266V45.3991H126.349V42.9853C126.349 42.7953 126.323 42.6417 126.271 42.5243C126.225 42.4014 126.153 42.3148 126.055 42.2645C125.963 42.2086 125.845 42.1807 125.7 42.1807C125.516 42.1807 125.355 42.2198 125.216 42.298C125.084 42.3707 124.98 42.4768 124.905 42.6165C124.83 42.7562 124.792 42.9183 124.792 43.1026V45.3991H123.486Z" fill="#7B7B7B"/>
<path d="M118.342 45.3991V41.2839H119.622V42.055H119.527C119.659 41.7812 119.855 41.5716 120.115 41.4264C120.38 41.2755 120.68 41.2001 121.014 41.2001C121.355 41.2001 121.634 41.2643 121.853 41.3928C122.072 41.5158 122.237 41.7058 122.346 41.9628C122.456 42.2142 122.511 42.5355 122.511 42.9266V45.3991H121.205V42.9853C121.205 42.7953 121.179 42.6417 121.127 42.5243C121.081 42.4014 121.009 42.3148 120.911 42.2645C120.818 42.2086 120.7 42.1807 120.556 42.1807C120.371 42.1807 120.21 42.2198 120.072 42.298C119.939 42.3707 119.835 42.4768 119.76 42.6165C119.685 42.7562 119.648 42.9183 119.648 43.1026V45.3991H118.342Z" fill="#7B7B7B"/>
<path d="M115.895 45.3992V39.4903H117.235V45.3992H115.895Z" fill="#7B7B7B"/>
<path d="M111.051 45.3992V44.0582H112.452V45.3992H111.051Z" fill="#7B7B7B"/>
<path d="M105.984 45.3991V41.2839H107.264V42.055H107.169C107.302 41.7812 107.498 41.5716 107.757 41.4264C108.023 41.2755 108.323 41.2001 108.657 41.2001C108.997 41.2001 109.277 41.2643 109.496 41.3928C109.715 41.5158 109.879 41.7058 109.989 41.9628C110.098 42.2142 110.153 42.5355 110.153 42.9266V45.3991H108.847V42.9853C108.847 42.7953 108.821 42.6417 108.769 42.5243C108.723 42.4014 108.651 42.3148 108.553 42.2645C108.461 42.2086 108.343 42.1807 108.199 42.1807C108.014 42.1807 107.853 42.2198 107.714 42.298C107.582 42.3707 107.478 42.4768 107.403 42.6165C107.328 42.7562 107.29 42.9183 107.29 43.1026V45.3991H105.984Z" fill="#7B7B7B"/>
<path d="M102.934 45.4913C102.479 45.4913 102.081 45.4047 101.741 45.2315C101.406 45.0583 101.147 44.8097 100.962 44.4856C100.778 44.1615 100.686 43.7787 100.686 43.3373C100.686 42.8959 100.778 42.516 100.962 42.1975C101.147 41.879 101.406 41.6331 101.741 41.4599C102.081 41.2867 102.479 41.2001 102.934 41.2001C103.39 41.2001 103.785 41.2867 104.119 41.4599C104.459 41.6331 104.722 41.8818 104.906 42.2058C105.097 42.5243 105.192 42.9015 105.192 43.3373C105.192 43.7787 105.097 44.1615 104.906 44.4856C104.722 44.8097 104.459 45.0583 104.119 45.2315C103.785 45.4047 103.39 45.4913 102.934 45.4913ZM102.934 44.5442C103.217 44.5442 103.445 44.4465 103.618 44.2509C103.791 44.0497 103.877 43.7452 103.877 43.3373C103.877 42.9294 103.791 42.6305 103.618 42.4405C103.445 42.245 103.217 42.1472 102.934 42.1472C102.658 42.1472 102.433 42.245 102.26 42.4405C102.087 42.6305 102 42.9294 102 43.3373C102 43.7452 102.087 44.0497 102.26 44.2509C102.433 44.4465 102.658 44.5442 102.934 44.5442Z" fill="#7B7B7B"/>
<path d="M98.5254 40.4877V39.3059H99.9352V40.4877H98.5254ZM98.5773 45.3992V41.2839H99.8833V45.3992H98.5773Z" fill="#7B7B7B"/>
<path d="M97.165 45.4913C96.5596 45.4913 96.1098 45.3489 95.8158 45.0639C95.5217 44.7789 95.3747 44.3599 95.3747 43.8067V42.231H94.5703V41.2839H95.3747V40.077H96.6807V41.2839H97.9348V42.231H96.6807V43.7564C96.6807 43.9911 96.7355 44.1671 96.845 44.2844C96.9603 44.4018 97.142 44.4604 97.3899 44.4604C97.4649 44.4604 97.5427 44.452 97.6234 44.4353C97.7099 44.4185 97.8022 44.3962 97.9002 44.3682L98.0905 45.2902C97.9694 45.3516 97.8252 45.3991 97.658 45.4327C97.4908 45.4718 97.3265 45.4913 97.165 45.4913Z" fill="#7B7B7B"/>
<path d="M92.9935 45.4913C92.5322 45.4913 92.1285 45.4047 91.7826 45.2315C91.4424 45.0527 91.18 44.8013 90.9955 44.4772C90.811 44.1531 90.7188 43.7704 90.7188 43.3289C90.7188 42.8875 90.811 42.5076 90.9955 42.1891C91.18 41.8706 91.4424 41.6275 91.7826 41.4599C92.1285 41.2867 92.5322 41.2001 92.9935 41.2001C93.2702 41.2001 93.5441 41.2392 93.8151 41.3174C94.0919 41.3956 94.3168 41.5074 94.4897 41.6527L94.1265 42.5243C93.9881 42.4126 93.8266 42.326 93.6421 42.2645C93.4576 42.1975 93.2846 42.1639 93.1232 42.1639C92.783 42.1639 92.5178 42.2673 92.3275 42.474C92.143 42.6752 92.0507 42.963 92.0507 43.3373C92.0507 43.7061 92.143 43.9967 92.3275 44.209C92.5178 44.4157 92.783 44.5191 93.1232 44.5191C93.2846 44.5191 93.4576 44.4884 93.6421 44.4269C93.8266 44.3654 93.9881 44.276 94.1265 44.1587L94.4897 45.0304C94.3168 45.1701 94.0919 45.2818 93.8151 45.3656C93.5383 45.4494 93.2645 45.4913 92.9935 45.4913Z" fill="#7B7B7B"/>
<path d="M83.8672 45.3992L86.6695 39.4903H87.7506L90.5529 45.3992H89.2037L88.4771 43.7564L89.0134 44.1168H85.4067L85.943 43.7564L85.2251 45.3992H83.8672ZM87.1971 40.8732L86.09 43.4295L85.8565 43.1027H88.5636L88.3301 43.4295L87.2144 40.8732H87.1971Z" fill="#7B7B7B"/>
<path d="M79.7246 45.3992V44.0582H81.1258V45.3992H79.7246Z" fill="#7B7B7B"/>
<path d="M77.2122 45.4913C76.9643 45.4913 76.725 45.4718 76.4944 45.4327C76.2637 45.3936 76.0533 45.3405 75.863 45.2734C75.6727 45.2064 75.5055 45.1226 75.3613 45.022L75.6727 44.2006C75.8168 44.2844 75.9725 44.3599 76.1397 44.4269C76.3127 44.4884 76.4915 44.5359 76.676 44.5694C76.8605 44.6029 77.0421 44.6197 77.2209 44.6197C77.4688 44.6197 77.6476 44.5834 77.7571 44.5107C77.8724 44.4325 77.9301 44.3319 77.9301 44.209C77.9301 44.0972 77.8926 44.0134 77.8177 43.9575C77.7427 43.9017 77.6331 43.8626 77.489 43.8402L76.5808 43.681C76.2234 43.6195 75.9466 43.4938 75.7505 43.3038C75.5603 43.1082 75.4651 42.8596 75.4651 42.5579C75.4651 42.2785 75.5458 42.0382 75.7073 41.8371C75.8687 41.6303 76.0907 41.4739 76.3733 41.3677C76.6616 41.2559 76.9874 41.2001 77.3506 41.2001C77.5582 41.2001 77.76 41.2168 77.956 41.2504C78.1521 41.2839 78.3366 41.3342 78.5096 41.4012C78.6883 41.4683 78.8469 41.5577 78.9853 41.6694L78.6566 42.4824C78.5471 42.3986 78.4173 42.326 78.2674 42.2645C78.1175 42.203 77.9647 42.1556 77.809 42.122C77.6533 42.0829 77.5063 42.0634 77.3679 42.0634C77.1084 42.0634 76.921 42.1053 76.8057 42.1891C76.6904 42.2673 76.6327 42.3679 76.6327 42.4908C76.6327 42.5858 76.6645 42.6668 76.7279 42.7339C76.7971 42.7953 76.9009 42.8372 77.0392 42.8596L77.9474 43.0188C78.3222 43.0803 78.6076 43.2032 78.8037 43.3876C78.9997 43.5664 79.0977 43.8123 79.0977 44.1252C79.0977 44.4101 79.0199 44.656 78.8642 44.8627C78.7085 45.0639 78.4894 45.2203 78.2069 45.3321C77.9243 45.4383 77.5928 45.4913 77.2122 45.4913Z" fill="#7B7B7B"/>
<path d="M74.1748 45.4913C73.5694 45.4913 73.1196 45.3489 72.8255 45.0639C72.5315 44.7789 72.3844 44.3599 72.3844 43.8067V42.231H71.5801V41.2839H72.3844V40.077H73.6904V41.2839H74.9446V42.231H73.6904V43.7564C73.6904 43.9911 73.7452 44.1671 73.8548 44.2844C73.9701 44.4018 74.1517 44.4604 74.3997 44.4604C74.4746 44.4604 74.5525 44.452 74.6332 44.4353C74.7197 44.4185 74.8119 44.3962 74.91 44.3682L75.1002 45.2902C74.9792 45.3516 74.835 45.3991 74.6678 45.4327C74.5006 45.4718 74.3362 45.4913 74.1748 45.4913Z" fill="#7B7B7B"/>
<path d="M66.9453 45.3992V39.4903H68.2513V42.055H68.1302C68.2629 41.7812 68.4589 41.5717 68.7184 41.4264C68.9836 41.2755 69.2834 41.2001 69.6179 41.2001C69.9581 41.2001 70.2377 41.2644 70.4568 41.3929C70.6759 41.5158 70.8403 41.7058 70.9498 41.9628C71.0594 42.2142 71.1142 42.5355 71.1142 42.9267V45.3992H69.8082V42.9853C69.8082 42.7954 69.7822 42.6417 69.7303 42.5244C69.6842 42.4014 69.6121 42.3148 69.5141 42.2645C69.4218 42.2087 69.3036 42.1807 69.1595 42.1807C68.975 42.1807 68.8135 42.2198 68.6751 42.2981C68.5425 42.3707 68.4387 42.4769 68.3638 42.6166C68.2888 42.7562 68.2513 42.9183 68.2513 43.1027V45.3992H66.9453Z" fill="#7B7B7B"/>
<path d="M63.6667 47C63.2631 47 62.8825 46.9581 62.525 46.8743C62.1676 46.7905 61.8562 46.6591 61.5909 46.4803L61.9456 45.6171C62.1012 45.7065 62.2685 45.7847 62.4472 45.8517C62.6317 45.9188 62.8191 45.9691 63.0094 46.0026C63.1997 46.0361 63.3813 46.0529 63.5543 46.0529C63.9233 46.0529 64.2001 45.9719 64.3846 45.8098C64.5691 45.6478 64.6614 45.3991 64.6614 45.0639V44.4269H64.7392C64.6527 44.6839 64.474 44.8935 64.203 45.0555C63.932 45.2175 63.6321 45.2986 63.3035 45.2986C62.9229 45.2986 62.5914 45.2148 62.3088 45.0471C62.0263 44.8739 61.8072 44.6336 61.6515 44.3263C61.4958 44.0134 61.418 43.653 61.418 43.2451C61.418 42.8316 61.4958 42.474 61.6515 42.1723C61.8072 41.865 62.0263 41.6275 62.3088 41.4599C62.5914 41.2867 62.9229 41.2001 63.3035 41.2001C63.6437 41.2001 63.9435 41.2811 64.203 41.4431C64.4682 41.5996 64.6441 41.8063 64.7306 42.0634H64.6614V41.2839H65.9328V44.9214C65.9328 45.3796 65.8463 45.7623 65.6733 46.0697C65.5003 46.3826 65.2437 46.6144 64.9035 46.7653C64.5691 46.9218 64.1568 47 63.6667 47ZM63.6927 44.3515C63.981 44.3515 64.2116 44.2537 64.3846 44.0581C64.5633 43.8626 64.6527 43.5916 64.6527 43.2451C64.6527 42.8987 64.5633 42.6305 64.3846 42.4405C64.2116 42.245 63.981 42.1472 63.6927 42.1472C63.3986 42.1472 63.1651 42.245 62.9921 42.4405C62.8191 42.6305 62.7326 42.8987 62.7326 43.2451C62.7326 43.5916 62.8191 43.8626 62.9921 44.0581C63.1651 44.2537 63.3986 44.3515 63.6927 44.3515Z" fill="#7B7B7B"/>
<path d="M59.2578 40.4877V39.3059H60.6676V40.4877H59.2578ZM59.3097 45.3992V41.2839H60.6157V45.3992H59.3097Z" fill="#7B7B7B"/>
<path d="M56.679 45.4913C56.4311 45.4913 56.1918 45.4718 55.9612 45.4327C55.7305 45.3936 55.52 45.3405 55.3298 45.2734C55.1395 45.2064 54.9723 45.1226 54.8281 45.022L55.1395 44.2006C55.2836 44.2844 55.4393 44.3599 55.6065 44.4269C55.7795 44.4884 55.9583 44.5359 56.1428 44.5694C56.3273 44.6029 56.5089 44.6197 56.6877 44.6197C56.9356 44.6197 57.1144 44.5834 57.2239 44.5107C57.3392 44.4325 57.3969 44.3319 57.3969 44.209C57.3969 44.0972 57.3594 44.0134 57.2845 43.9575C57.2095 43.9017 57.0999 43.8626 56.9558 43.8402L56.0476 43.681C55.6901 43.6195 55.4134 43.4938 55.2173 43.3038C55.0271 43.1082 54.9319 42.8596 54.9319 42.5579C54.9319 42.2785 55.0126 42.0382 55.1741 41.8371C55.3355 41.6303 55.5575 41.4739 55.8401 41.3677C56.1284 41.2559 56.4541 41.2001 56.8174 41.2001C57.025 41.2001 57.2268 41.2168 57.4228 41.2504C57.6189 41.2839 57.8034 41.3342 57.9764 41.4012C58.1551 41.4683 58.3137 41.5577 58.4521 41.6694L58.1234 42.4824C58.0139 42.3986 57.8841 42.326 57.7342 42.2645C57.5843 42.203 57.4315 42.1556 57.2758 42.122C57.1201 42.0829 56.9731 42.0634 56.8347 42.0634C56.5752 42.0634 56.3878 42.1053 56.2725 42.1891C56.1572 42.2673 56.0995 42.3679 56.0995 42.4908C56.0995 42.5858 56.1312 42.6668 56.1947 42.7339C56.2639 42.7953 56.3677 42.8372 56.506 42.8596L57.4142 43.0188C57.789 43.0803 58.0744 43.2032 58.2704 43.3876C58.4665 43.5664 58.5645 43.8123 58.5645 44.1252C58.5645 44.4101 58.4867 44.656 58.331 44.8627C58.1753 45.0639 57.9562 45.2203 57.6737 45.3321C57.3911 45.4383 57.0596 45.4913 56.679 45.4913Z" fill="#7B7B7B"/>
<path d="M49.9102 45.3991V41.2839H51.1902V42.055H51.0951C51.2277 41.7812 51.4237 41.5716 51.6832 41.4264C51.9485 41.2755 52.2483 41.2001 52.5827 41.2001C52.9229 41.2001 53.2026 41.2643 53.4217 41.3928C53.6408 41.5158 53.8051 41.7058 53.9147 41.9628C54.0242 42.2142 54.079 42.5355 54.079 42.9266V45.3991H52.773V42.9853C52.773 42.7953 52.747 42.6417 52.6952 42.5243C52.649 42.4014 52.5769 42.3148 52.4789 42.2645C52.3867 42.2086 52.2685 42.1807 52.1243 42.1807C51.9398 42.1807 51.7784 42.2198 51.64 42.298C51.5073 42.3707 51.4036 42.4768 51.3286 42.6165C51.2536 42.7562 51.2162 42.9183 51.2162 43.1026V45.3991H49.9102Z" fill="#7B7B7B"/>
<path d="M47.4629 45.3992V39.4903H48.8035V45.3992H47.4629Z" fill="#7B7B7B"/>
<defs>
<clipPath id="clip0_40000163_6853">
<rect width="191" height="39.8116" fill="white"/>
</clipPath>
</defs>
</svg>
